# File created by Blade
# Date/Time:  Tue Jan 27 19:32:46 2015
#---------------------------------------------------------
:version 1.10
:name HOM
:units
  mass 1.0
  length 1.000000
  angle deg
:documentation
     Acclaim Skeleton File
:root
   axis xyz
   order TX TY TZ RX RY RZ
   position 0.000000 0.000000 0.000000
   orientation 0 0 0
:bonedata
   begin
      id 1
      name Spine_dum
      direction 0.000000 1.000000 0.000000
      length 6.116652
      axis 0.0 0.0 0.0 xyz
   end
   begin
      id 2
      name LeftUpLeg_dum
      direction 1.000000 0.000000 0.000000
      length 4.711765
      axis 0.0 0.0 0.0 xyz
   end
   begin
      id 3
      name RightUpLeg_dum
      direction -1.000000 0.000000 0.000000
      length 4.711765
      axis 0.0 0.0 0.0 xyz
   end
   begin
      id 4
      name Spine
      direction 0.000000 1.000000 0.000000
      length 0.000000
      axis 0.0 0.0 0.0 xyz
      dof rx ry rz
   end
   begin
      id 5
      name Spine_dum1
      direction 0.000000 1.000000 0.000000
      length 15.225563
      axis 0.0 0.0 0.0 xyz
   end
   begin
      id 6
      name Spine_dum2
      direction 0.000000 1.000000 0.000000
      length 8.977654
      axis 0.0 0.0 0.0 xyz
   end
   begin
      id 7
      name Spine_dum3
      direction 0.000000 1.000000 0.000000
      length 8.977654
      axis 0.0 0.0 0.0 xyz
   end
   begin
      id 8
      name Head
      direction 0.000000 1.000000 0.000000
      length 4.527550
      axis 0.0 0.0 0.0 xyz
      dof rx ry rz
   end
   begin
      id 9
      name LeftShoulder
      direction 1.000000 0.000000 0.000000
      length 7.110130
      axis 0.0 0.0 -90.0 xyz
      dof rx ry rz
   end
   begin
      id 10
      name LeftArm
      direction 1.000000 0.000000 0.000000
      length 10.398341
      axis 0.0 0.0 -90.0 xyz
      dof rx ry rz
   end
   begin
      id 11
      name LeftForeArm
      direction 1.000000 0.000000 0.000000
      length 8.888997
      axis 0.0 0.0 -90.0 xyz
      dof ry rz rx
   end
   begin
      id 12
      name LeftHand
      direction 0.000000 0.000000 0.000000
      length 0.000000
      axis 0.0 0.0 -90.0 xyz
      dof rx ry rz
   end
   begin
      id 13
      name LeftHand_dum1
      direction 0.000000 0.000000 0.000000
      length 0.000000
      axis 0.0 0.0 -90.0 xyz
   end
   begin
      id 14
      name LeftHand_dum2
      direction 1.000000 0.000000 0.000000
      length 3.937000
      axis 0.0 0.0 -90.0 xyz
   end
   begin
      id 15
      name LeftHandThumb1
      direction 0.000000 0.000000 1.000000
      length 3.937000
      axis 0.0 0.0 -90.0 xyz
      dof rx rz ry
   end
   begin
      id 16
      name RightShoulder
      direction -1.000000 0.000000 0.000000
      length 7.110130
      axis 0.0 0.0 90.0 xyz
      dof rx ry rz
   end
   begin
      id 17
      name RightArm
      direction -1.000000 0.000000 0.000000
      length 10.398341
      axis 0.0 0.0 90.0 xyz
      dof rx ry rz
   end
   begin
      id 18
      name RightForeArm
      direction -1.000000 0.000000 0.000000
      length 8.888997
      axis 0.0 0.0 90.0 xyz
      dof ry rz rx
   end
   begin
      id 19
      name RightHand
      direction 0.000000 0.000000 0.000000
      length 0.000000
      axis 0.0 0.0 90.0 xyz
      dof rx ry rz
   end
   begin
      id 20
      name RightHand_dum1
      direction 0.000000 0.000000 0.000000
      length 0.000000
      axis 0.0 0.0 90.0 xyz
   end
   begin
      id 21
      name RightHand_dum2
      direction -1.000000 0.000000 0.000000
      length 3.937000
      axis 0.0 0.0 90.0 xyz
   end
   begin
      id 22
      name RightHandThumb1
      direction 0.000000 0.000000 1.000000
      length 3.937000
      axis 0.0 0.0 90.0 xyz
      dof rx rz ry
   end
   begin
      id 23
      name LeftUpLeg
      direction 0.000000 -1.000000 0.000000
      length 15.510451
      axis 0.0 0.0 0.0 xyz
      dof rx ry rz
   end
   begin
      id 24
      name LeftLeg
      direction 0.000000 -1.000000 0.000000
      length 14.858061
      axis 0.0 0.0 0.0 xyz
      dof rx ry rz
   end
   begin
      id 25
      name LeftFoot
      direction 0.000000 -0.258819 0.965926
      length 5.128852
      axis 15.0 0.0 0.0 xyz
      dof rx ry rz
   end
   begin
      id 26
      name LeftToeBase
      direction 0.000000 0.000000 1.000000
      length 2.952750
      axis 0.0 0.0 0.0 xyz
      dof rx ry rz
   end
   begin
      id 27
      name RightUpLeg
      direction 0.000000 -1.000000 0.000000
      length 15.510451
      axis 0.0 0.0 0.0 xyz
      dof rx ry rz
   end
   begin
      id 28
      name RightLeg
      direction 0.000000 -1.000000 0.000000
      length 14.858061
      axis 0.0 0.0 0.0 xyz
      dof rx ry rz
   end
   begin
      id 29
      name RightFoot
      direction 0.000000 -0.258819 0.965926
      length 5.128852
      axis 15.0 0.0 0.0 xyz
      dof rx ry rz
   end
   begin
      id 30
      name RightToeBase
      direction 0.000000 0.000000 1.000000
      length 2.952750
      axis 0.0 0.0 0.0 xyz
      dof rx ry rz
   end
:hierarchy
   begin
      root Spine_dum LeftUpLeg_dum RightUpLeg_dum
      Spine_dum Spine
      LeftUpLeg_dum LeftUpLeg
      RightUpLeg_dum RightUpLeg
      Spine Spine_dum1 Spine_dum2 Spine_dum3
      Spine_dum1 Head
      Spine_dum2 LeftShoulder
      Spine_dum3 RightShoulder
      LeftShoulder LeftArm
      LeftArm LeftForeArm
      LeftForeArm LeftHand
      LeftHand LeftHand_dum1 LeftHand_dum2
      LeftHand_dum1 LeftHandThumb1
      RightShoulder RightArm
      RightArm RightForeArm
      RightForeArm RightHand
      RightHand RightHand_dum1 RightHand_dum2
      RightHand_dum1 RightHandThumb1
      LeftUpLeg LeftLeg
      LeftLeg LeftFoot
      LeftFoot LeftToeBase
      RightUpLeg RightLeg
      RightLeg RightFoot
      RightFoot RightToeBase
   end

# File created by Blade
# Date/Time:  Tue Jan 27 19:32:37 2015
# Frame Rate: 120.000 fps
#------------------------------------------------------
:FULLY-SPECIFIED
:DEGREES
1173
root 4.029119 32.203183 -0.431022 -6.506066 2.277296 0.175801
Spine 3.075040 17.836299 0.574963
Head 9.162052 -24.519906 1.769735
LeftShoulder -1.724404 -9.326632 25.229397
LeftArm 0.916205 43.150979 -100.007824
LeftForeArm 2.807203 0.000000 9.144011
LeftHand 10.164602 -0.000000 -4.651031
LeftHandThumb1 -26.253704 0.000000 33.147579
RightShoulder 0.340227 7.267437 -24.448419
RightArm 35.359964 12.335864 107.437332
RightForeArm -2.760828 -0.000000 123.425156
RightHand 28.134212 0.000000 -19.514187
RightHandThumb1 -24.326973 -0.000000 -32.862282
LeftUpLeg 12.180324 0.082569 -2.258390
LeftLeg 2.845238 -0.000000 -0.000000
LeftFoot -21.157998 17.859941 -22.570782
LeftToeBase 16.186184 -0.000000 -0.000000
RightUpLeg 11.877678 -11.208826 -0.161660
RightLeg 0.527721 -0.000000 -0.000000
RightFoot -13.327900 -12.845290 14.221307
RightToeBase 11.044692 -0.000000 -0.000000
1174
root 4.022197 32.204014 -0.433006 -6.505600 2.271883 0.177568
Spine 3.081194 17.858583 0.533568
Head 9.178967 -24.547032 1.820364
LeftShoulder -1.702670 -9.333916 25.249742
LeftArm 0.953488 43.164532 -99.988050
LeftForeArm 2.781127 0.000000 9.137785
LeftHand 10.172654 -0.000000 -4.630294
LeftHandThumb1 -26.253704 0.000000 33.147579
RightShoulder 0.311862 7.212274 -24.413384
RightArm 35.383886 11.902610 107.237448
RightForeArm -2.685209 -0.000000 123.206814
RightHand 28.172963 -0.000000 -19.207099
RightHandThumb1 -24.326973 -0.000000 -32.862282
LeftUpLeg 12.171806 -0.073895 -2.285585
LeftLeg 2.859318 -0.000000 -0.000000
LeftFoot -21.221573 18.002245 -22.643766
LeftToeBase 16.167527 -0.000000 -0.000000
RightUpLeg 11.874586 -11.189422 -0.143606
RightLeg 0.520619 -0.000000 -0.000000
RightFoot -13.323823 -12.877408 14.191503
RightToeBase 11.102733 -0.000000 -0.000000
1175
root 4.016894 32.204242 -0.435271 -6.498306 2.264291 0.175884
Spine 3.081002 17.864563 0.511386
Head 9.197389 -24.541940 1.837703
LeftShoulder -1.690138 -9.359270 25.255829
LeftArm 0.953988 43.166353 -99.993115
LeftForeArm 2.783785 0.000000 9.125188
LeftHand 10.188439 0.000000 -4.654237
LeftHandThumb1 -26.253704 0.000000 33.147579
RightShoulder 0.275498 7.158206 -24.420065
RightArm 35.393723 11.368282 107.012489
RightForeArm -2.936192 -0.000000 122.965214
RightHand 28.116245 -0.000000 -19.063317
RightHandThumb1 -24.326973 -0.000000 -32.862282
LeftUpLeg 12.163684 -0.094128 -2.280667
LeftLeg 2.852528 -0.000000 -0.000000
LeftFoot -21.216079 18.034197 -22.628838
LeftToeBase 16.154807 -0.000000 -0.000000
RightUpLeg 11.859117 -11.165238 -0.124314
RightLeg 0.522627 -0.000000 -0.000000
RightFoot -13.322112 -12.911981 14.164757
RightToeBase 11.084356 -0.000000 -0.000000
1176
root 4.013509 32.204512 -0.436182 -6.502384 2.254165 0.175561
Spine 3.090247 17.843577 0.499399
Head 9.230341 -24.511468 1.834722
LeftShoulder -1.693075 -9.355101 25.252510
LeftArm 0.961288 43.179130 -99.987441
LeftForeArm 2.781596 -0.000000 9.134472
LeftHand 10.216033 0.000000 -4.618735
LeftHandThumb1 -26.253704 0.000000 33.147579
RightShoulder 0.257903 7.077928 -24.447384
RightArm 35.416955 10.728747 106.679983
RightForeArm -3.403006 -0.000000 122.701368
RightHand 27.976999 -0.000000 -18.739753
RightHandThumb1 -24.326973 -0.000000 -32.862282
LeftUpLeg 12.166990 -0.094143 -2.274403
LeftLeg 2.854772 -0.000000 -0.000000
LeftFoot -21.229582 18.028366 -22.670160
LeftToeBase 16.165719 -0.000000 -0.000000
RightUpLeg 11.863628 -11.168130 -0.118710
RightLeg 0.514505 -0.000000 -0.000000
RightFoot -13.312070 -12.917705 14.141200
RightToeBase 11.072141 -0.000000 -0.000000
1177
root 4.008194 32.204710 -0.438064 -6.504571 2.237376 0.172146
Spine 3.101328 17.850012 0.480659
Head 9.253734 -24.503704 1.850221
LeftShoulder -1.687883 -9.360158 25.252275
LeftArm 0.994518 43.216451 -99.969239
LeftForeArm 2.765161 -0.000000 9.126183
LeftHand 10.240186 -0.000000 -4.684162
LeftHandThumb1 -26.253704 0.000000 33.147579
RightShoulder 0.197407 6.997939 -24.478278
RightArm 35.440456 9.985578 106.255162
RightForeArm -4.054032 -0.000000 122.390913
RightHand 27.987556 -0.000000 -18.800967
RightHandThumb1 -24.326973 -0.000000 -32.862282
LeftUpLeg 12.163022 -0.068195 -2.257685
LeftLeg 2.862354 -0.000000 -0.000000
LeftFoot -21.222751 18.024706 -22.660387
LeftToeBase 16.172756 -0.000000 -0.000000
RightUpLeg 11.860000 -11.146760 -0.101917
RightLeg 0.509986 -0.000000 -0.000000
RightFoot -13.305611 -12.916841 14.176498
RightToeBase 11.054074 -0.000000 -0.000000
1178
root 4.002723 32.204817 -0.439970 -6.501724 2.223839 0.171744
Spine 3.101207 17.884089 0.443821
Head 9.299163 -24.537874 1.886239
LeftShoulder -1.647293 -9.330748 25.274739
LeftArm 1.085701 43.232099 -99.930569
LeftForeArm 2.693029 0.000000 9.132280
LeftHand 10.205604 -0.000000 -5.266487
LeftHandThumb1 -26.253704 0.000000 33.147579
RightShoulder 0.113068 6.917230 -24.480338
RightArm 35.476537 9.208250 105.763485
RightForeArm -4.555920 -0.000000 122.055424
RightHand 27.999433 -0.000000 -18.479927
RightHandThumb1 -24.326973 -0.000000 -32.862282
LeftUpLeg 12.152581 -0.052274 -2.244758
LeftLeg 2.873335 -0.000000 -0.000000
LeftFoot -21.223841 18.015908 -22.665502
LeftToeBase 16.169114 -0.000000 -0.000000
RightUpLeg 11.849823 -11.125765 -0.090850
RightLeg 0.515201 -0.000000 -0.000000
RightFoot -13.312460 -12.898840 14.182624
RightToeBase 11.157934 -0.000000 -0.000000
1179
root 3.996653 32.204816 -0.442426 -6.487086 2.215773 0.171174
Spine 3.080972 17.913494 0.394293
Head 9.347453 -24.577370 1.941700
LeftShoulder -1.592302 -9.095339 25.279718
LeftArm 1.437505 43.262979 -99.699281
LeftForeArm 2.740591 -0.000000 9.163703
LeftHand 10.172676 -0.000000 -5.268733
LeftHandThumb1 -26.253704 0.000000 33.147579
RightShoulder 0.010422 6.810870 -24.483787
RightArm 35.545862 8.325209 105.231108
RightForeArm -4.973688 -0.000000 121.657636
RightHand 27.919890 -0.000000 -18.153104
RightHandThumb1 -24.326973 -0.000000 -32.862282
LeftUpLeg 12.141437 -0.086630 -2.242274
LeftLeg 2.859681 -0.000000 -0.000000
LeftFoot -21.237923 18.047797 -22.685919
LeftToeBase 16.158621 -0.000000 -0.000000
RightUpLeg 11.826182 -11.114930 -0.071819
RightLeg 0.520677 -0.000000 -0.000000
RightFoot -13.320577 -12.915293 14.171685
RightToeBase 11.139151 -0.000000 -0.000000
1180
root 4.005444 32.203989 -0.431374 -6.586529 2.136625 0.194251
Spine 3.176759 17.883624 0.453548
Head 9.458122 -24.481510 1.797946
LeftShoulder -1.642580 -8.808018 25.216008
LeftArm 1.754001 43.338193 -99.492023
LeftForeArm 2.668151 0.000000 9.176527
LeftHand 10.218099 -0.000000 -5.369095
LeftHandThumb1 -26.253704 0.000000 33.147579
RightShoulder -0.017910 6.692147 -24.610268
RightArm 35.658335 7.174224 104.551516
RightForeArm -5.702102 -0.000000 121.123756
RightHand 27.804440 -0.000000 -18.667859
RightHandThumb1 -24.326973 -0.000000 -32.862282
LeftUpLeg 12.244130 0.172642 -2.223664
LeftLeg 2.913864 -0.000000 -0.000000
LeftFoot -21.199637 17.829633 -22.690058
LeftToeBase 16.169412 -0.000000 -0.000000
RightUpLeg 11.956011 -11.119591 -0.149096
RightLeg 0.490750 -0.000000 -0.000000
RightFoot -13.307086 -12.781801 14.209297
RightToeBase 11.135125 -0.000000 -0.000000
1181
root 3.994352 32.204265 -0.438470 -6.551450 2.144505 0.178614
Spine 3.138487 17.785869 0.412690
Head 9.530226 -24.404555 1.802770
LeftShoulder -1.669862 -8.688086 25.203475
LeftArm 1.904522 43.347904 -99.367051
LeftForeArm 2.781120 -0.000000 9.187633
LeftHand 10.320911 -0.000000 -4.663216
LeftHandThumb1 -26.253704 0.000000 33.147579
RightShoulder -0.052229 6.611306 -24.630878
RightArm 35.800658 6.019002 103.820069
RightForeArm -5.968292 -0.000000 120.537501
RightHand 27.773052 -0.000000 -18.551635
RightHandThumb1 -24.326973 -0.000000 -32.862282
LeftUpLeg 12.207510 0.076997 -2.213345
LeftLeg 2.885402 -0.000000 -0.000000
LeftFoot -21.214171 17.947027 -22.678600
LeftToeBase 16.124633 -0.000000 -0.000000
RightUpLeg 11.901389 -11.109171 -0.096033
RightLeg 0.497083 -0.000000 -0.000000
RightFoot -13.288693 -12.842861 14.154864
RightToeBase 11.108978 -0.000000 -0.000000
1182
root 3.983114 32.204558 -0.447264 -6.490620 2.140602 0.167300
Spine 3.068058 17.766644 0.348704
Head 9.605352 -24.419621 1.838363
LeftShoulder -1.645141 -9.109056 25.231467
LeftArm 1.355642 43.265784 -99.746525
LeftForeArm 2.782092 -0.000000 9.209985
LeftHand 10.300561 -0.000000 -4.697830
LeftHandThumb1 -26.253704 0.000000 33.147579
RightShoulder -0.159975 6.535823 -24.642377
RightArm 35.935189 4.818387 103.028784
RightForeArm -5.895189 -0.000000 119.898492
RightHand 27.841735 0.000000 -18.137593
RightHandThumb1 -24.326973 -0.000000 -32.862282
LeftUpLeg 12.134218 -0.024864 -2.208658
LeftLeg 2.876496 -0.000000 -0.000000
LeftFoot -21.253518 18.061710 -22.690664
LeftToeBase 16.205935 -0.000000 -0.000000
RightUpLeg 11.800236 -11.084149 -0.039333
RightLeg 0.534187 -0.000000 -0.000000
RightFoot -13.309346 -12.895486 14.141695
RightToeBase 11.170587 -0.000000 -0.000000
1183
root 3.978933 32.204271 -0.447735 -6.502071 2.107524 0.166569
Spine 3.056812 17.610842 0.359963
Head 9.770364 -24.256245 1.689208
LeftShoulder -1.726510 -9.055214 25.186848
LeftArm 1.314226 43.247033 -99.739730
LeftForeArm 2.781012 -0.000000 9.245307
LeftHand 10.291923 -0.000000 -4.706360
LeftHandThumb1 -26.253704 0.000000 33.147579
RightShoulder -0.057375 6.498981 -24.716659
RightArm 36.099314 3.568222 102.204707
RightForeArm -5.899562 -0.000000 119.269581
RightHand 27.594339 -0.000000 -17.532101
RightHandThumb1 -24.326973 -0.000000 -32.862282
LeftUpLeg 12.152525 -0.011610 -2.203129
LeftLeg 2.868500 -0.000000 -0.000000
LeftFoot -21.256247 18.068778 -22.724720
LeftToeBase 16.112384 -0.000000 -0.000000
RightUpLeg 11.803803 -11.087782 -0.036180
RightLeg 0.541248 -0.000000 -0.000000
RightFoot -13.303707 -12.854056 14.129383
RightToeBase 11.166950 -0.000000 -0.000000
